<svg class="del" xmlns="http://www.w3.org/2000/svg" fill='white' viewBox="0 0 37 37">
	<path d="M11.44 27.2807C10.7375 27.9832 9.56756 27.9523 8.82691 27.2117C8.08626 26.471 8.05537 25.3011 8.7579 24.5986L24.5986 8.75789C25.3011 8.05536 26.471 8.08625 27.2117 8.8269C27.9523 9.56755 27.9832 10.7375 27.2807 11.44L11.44 27.2807Z"/>
	<path d="M9.22241 11.991C8.44158 11.2101 8.40901 9.97674 9.14965 9.23609C9.8903 8.49544 11.1237 8.52802 11.9045 9.30885L27.4617 24.866C28.2425 25.6468 28.2751 26.8802 27.5344 27.6209C26.7938 28.3615 25.5604 28.3289 24.7796 27.5481L9.22241 11.991Z"/>
</svg>