<svg width="20" height="20" viewBox="0 0 20 20" fill="none" xmlns="http://www.w3.org/2000/svg">
<path d="M6.64193 18.3337C8.48288 18.3337 9.97526 16.8413 9.97526 15.0003C9.97526 13.1594 8.48288 11.667 6.64193 11.667C4.80098 11.667 3.30859 13.1594 3.30859 15.0003C3.30859 16.8413 4.80098 18.3337 6.64193 18.3337Z" stroke="#CCCCCC" stroke-width="1.5" stroke-linecap="round" stroke-linejoin="round"/>
<path d="M9.97656 14.9997V3.33301" stroke="#CCCCCC" stroke-width="1.5" stroke-linecap="round" stroke-linejoin="round"/>
<path d="M12.1761 1.75841L15.8594 2.98341C16.7511 3.28341 17.4844 4.29175 17.4844 5.23341V6.20841C17.4844 7.48341 16.5011 8.19175 15.2928 7.79175L11.6094 6.56675C10.7178 6.26675 9.98443 5.25841 9.98443 4.31675V3.33341C9.97609 2.06675 10.9678 1.35008 12.1761 1.75841Z" stroke="#CCCCCC" stroke-width="1.5" stroke-linecap="round" stroke-linejoin="round"/>
</svg>
