<svg width="24" height="22" viewBox="0 0 24 22" fill="none" xmlns="http://www.w3.org/2000/svg">
<path d="M6.76017 20.1663H17.2402C20.0002 20.1663 21.1002 18.6172 21.2302 16.7288L21.7502 9.15717C21.8902 7.17717 20.1702 5.49967 18.0002 5.49967C17.3902 5.49967 16.8302 5.17884 16.5502 4.68384L15.8302 3.35467C15.3702 2.52051 14.1702 1.83301 13.1502 1.83301H10.8602C9.83017 1.83301 8.63017 2.52051 8.17017 3.35467L7.45017 4.68384C7.17017 5.17884 6.61017 5.49967 6.00017 5.49967C3.83017 5.49967 2.11017 7.17717 2.25017 9.15717L2.77017 16.7288C2.89017 18.6172 4.00017 20.1663 6.76017 20.1663Z" stroke="#CCCCCC" stroke-width="1.5" stroke-linecap="round" stroke-linejoin="round"/>
<path d="M10.5 7.33301H13.5" stroke="#CCCCCC" stroke-width="1.5" stroke-linecap="round" stroke-linejoin="round"/>
<path d="M12 16.5003C13.79 16.5003 15.25 15.162 15.25 13.5212C15.25 11.8803 13.79 10.542 12 10.542C10.21 10.542 8.75 11.8803 8.75 13.5212C8.75 15.162 10.21 16.5003 12 16.5003Z" stroke="#CCCCCC" stroke-width="1.5" stroke-linecap="round" stroke-linejoin="round"/>
</svg>
