<svg class="heart" xmlns="http://www.w3.org/2000/svg" stroke='white' stroke-width='1.5' fill='white' viewBox="0 0 20 18">
	<path d="M3.40103 11.2554C3.18943 11.0631 3.01859 10.9075 2.89055 10.7907V10.7223L2.60977 10.4316C1.58927 9.37522 1 7.97375 1 6.49122V6.30047C1.09174 3.42044 3.45847 1.10496 6.16915 1.10496C6.5559 1.10496 7.08549 1.24557 7.62257 1.54495C8.12726 1.82627 8.5706 2.2103 8.86509 2.63829C9.08573 3.10687 9.54615 3.3968 10.0498 3.3968C10.5736 3.3968 11.0506 3.08315 11.2598 2.58105C11.5028 2.1411 11.9288 1.74268 12.4403 1.44739C12.9768 1.13762 13.5018 1.00195 13.8308 1.00195C16.6211 1.00195 18.908 3.29686 19 6.29999V6.49122C19 8.09346 18.4004 9.47172 17.4211 10.401L17.1095 10.6968V10.7624C16.9617 10.8923 16.7754 11.0588 16.5604 11.2523C16.057 11.7055 15.383 12.3192 14.6494 12.9885C14.4141 13.2033 14.1726 13.4237 13.9285 13.6465C12.6509 14.8128 11.3017 16.0445 10.3865 16.8628C10.1664 17.0483 9.83359 17.0483 9.61348 16.8628C8.52079 15.8858 6.78635 14.3212 5.31019 12.9857C4.57048 12.3165 3.89629 11.7054 3.40103 11.2554Z"/>
</svg>