<svg id='close' xmlns="http://www.w3.org/2000/svg">
	<path class="st0" d="M14.2,26.4c-0.5,0.5-1.5,0.5-2.1-0.1s-0.7-1.6-0.1-2.1l12.2-12.2c0.5-0.5,1.5-0.5,2.1,0.1s0.7,1.6,0.1,2.1L14.2,26.4z" />
	<path class="st0" d="M11.9,14.2c-0.5-0.5-0.5-1.5,0.1-2.1s1.6-0.7,2.1-0.1l12.2,12.2c0.5,0.5,0.5,1.5-0.1,2.1s-1.6,0.7-2.1,0.1L11.9,14.2z"/>
	<path class="st1" d="M19,36C9.6,36,2,28.4,2,19C2,9.6,9.6,2,19,2c9.4,0,17,7.6,17,17C36,28.4,28.4,36,19,36z M19,4.4C10.9,4.4,4.4,10.9,4.4,19S10.9,33.6,19,33.6S33.6,27.1,33.6,19S27.1,4.4,19,4.4z" />
</svg>
