<svg id='show_music' viewBox="0 0 18 18" xmlns="http://www.w3.org/2000/svg">
    <path d="M5.97656 16.5C7.63342 16.5 8.97656 15.1569 8.97656 13.5C8.97656 11.8431 7.63342 10.5 5.97656 10.5C4.31971 10.5 2.97656 11.8431 2.97656 13.5C2.97656 15.1569 4.31971 16.5 5.97656 16.5Z" stroke-linecap="round" stroke-linejoin="round"/>
    <path d="M8.97656 13.5V3" stroke-linecap="round" stroke-linejoin="round"/>
    <path d="M10.9569 1.58286L14.2719 2.68536C15.0744 2.95536 15.7344 3.86286 15.7344 4.71036V5.58786C15.7344 6.73536 14.8494 7.37287 13.7619 7.01287L10.4469 5.91036C9.64442 5.64036 8.98442 4.73286 8.98442 3.88536V3.00036C8.97692 1.86036 9.86942 1.21536 10.9569 1.58286Z" stroke-linecap="round" stroke-linejoin="round"/>
</svg>
