<svg id="show_photo" viewBox="0 0 18 18" xmlns="http://www.w3.org/2000/svg">
    <path d="M6.75 16.5H11.25C15 16.5 16.5 15 16.5 11.25V6.75C16.5 3 15 1.5 11.25 1.5H6.75C3 1.5 1.5 3 1.5 6.75V11.25C1.5 15 3 16.5 6.75 16.5Z" stroke-linecap="round" stroke-linejoin="round"/>
    <path d="M6.75 7.5C7.57843 7.5 8.25 6.82843 8.25 6C8.25 5.17157 7.57843 4.5 6.75 4.5C5.92157 4.5 5.25 5.17157 5.25 6C5.25 6.82843 5.92157 7.5 6.75 7.5Z" stroke-linecap="round" stroke-linejoin="round"/>
    <path d="M2.00391 14.2124L5.70141 11.7299C6.29391 11.3324 7.14891 11.3774 7.68141 11.8349L7.92891 12.0524C8.51391 12.5549 9.45891 12.5549 10.0439 12.0524L13.1639 9.37492C13.7489 8.87242 14.6939 8.87242 15.2789 9.37492L16.5014 10.4249" stroke-linecap="round" stroke-linejoin="round"/>
</svg>
