<svg class="back__card__svg svg__down" xmlns="http://www.w3.org/2000/svg" xmlns:xlink="http://www.w3.org/1999/xlink" x="0px" y="0px"viewBox="0 0 16 16" style="enable-background:new 0 0 16 16;" xml:space="preserve">
	<path class="st0" d="M10,15.2H6c-3.6,0-5.2-1.5-5.2-5.2V6c0-3.6,1.5-5.2,5.2-5.2h1.3c0.3,0,0.5,0.2,0.5,0.5S7.6,1.8,7.3,1.8H6C2.9,1.8,1.8,2.9,1.8,6v4c0,3,1.1,4.2,4.2,4.2h4c3.1,0,4.2-1.1,4.2-4.2V8.7c0-0.3,0.2-0.5,0.5-0.5s0.5,0.2,0.5,0.5V10C15.2,13.6,13.6,15.2,10,15.2z"/>
	<path class="st0" d="M5.7,11.8c-0.4,0-0.8-0.1-1.1-0.4c-0.3-0.3-0.5-0.8-0.4-1.3l0.3-2c0.1-0.4,0.3-0.9,0.6-1.2l5.3-5.3c0.6-0.6,1.2-0.9,1.8-1c0.7-0.1,1.5,0.3,2.2,1c0.7,0.7,1.1,1.5,1,2.2c-0.1,0.6-0.4,1.2-1,1.8l-5.3,5.3c-0.3,0.3-0.8,0.5-1.2,0.6l-2,0.3C5.8,11.8,5.8,11.8,5.7,11.8z M12.3,1.7c0,0-0.1,0-0.1,0c-0.4,0-0.7,0.3-1.2,0.7l0,0L5.8,7.6C5.7,7.7,5.5,8,5.5,8.2l-0.3,2c0,0.2,0,0.4,0.1,0.5c0.1,0.1,0.3,0.1,0.5,0.1l2-0.3c0.2,0,0.5-0.2,0.6-0.3L13.6,5c0.4-0.4,0.7-0.8,0.7-1.2c0-0.4-0.2-0.9-0.7-1.4C13.2,1.9,12.7,1.7,12.3,1.7z M10.7,2L10.7,2L10.7,2z"/>
	<path class="st0" d="M13.2,6.6c0,0-0.1,0-0.1,0C11.3,6,10,4.7,9.5,2.9C9.4,2.6,9.5,2.4,9.8,2.3c0.3-0.1,0.5,0.1,0.6,0.3c0.4,1.4,1.5,2.5,2.9,2.9c0.3,0.1,0.4,0.4,0.3,0.6C13.7,6.4,13.5,6.6,13.2,6.6z"/>
</svg>
