<svg fill="white" class="back__card__up__svg" xmlns="http://www.w3.org/2000/svg" xmlns:xlink="http://www.w3.org/1999/xlink" x="0px" y="0px"
	 viewBox="0 0 18 18" style="enable-background:new 0 0 18 18;" xml:space="preserve">
<path class="st0" d="M9,17c-4.4,0-8-3.6-8-8s3.6-8,8-8s8,3.6,8,8S13.4,17,9,17z M9,2C5.1,2,2,5.1,2,9c0,3.9,3.1,7,7,7
	c3.9,0,7-3.1,7-7C16,5.1,12.9,2,9,2z"/>
<path class="st0" d="M9,12.5c-0.3,0-0.5-0.2-0.5-0.5V8.2C8.5,8,8.7,7.8,9,7.8S9.5,8,9.5,8.2V12C9.5,12.3,9.3,12.5,9,12.5z"/>
<path class="st0" d="M9,6.8L9,6.8C8.6,6.8,8.2,6.4,8.2,6S8.6,5.2,9,5.2S9.8,5.6,9.8,6S9.4,6.8,9,6.8z"/>
</svg>
