<svg width="15" height="13" viewBox="0 0 15 13" fill="none" xmlns="http://www.w3.org/2000/svg">
<path d="M15 4.53791C14.9254 2.00858 12.9104 0 10.3731 0C9.55224 0 8.28358 0.595136 7.76119 1.56223C7.68657 1.78541 7.38806 1.78541 7.31343 1.56223C6.71642 0.669528 5.52239 0.074392 4.62687 0.074392C2.16418 0.074392 0.0746269 2.08298 0 4.53791V4.6867C0 5.95136 0.522388 7.14163 1.41791 8.03433C1.41791 8.03433 1.41791 8.03433 1.41791 8.10873C1.49254 8.18312 5.07463 11.3076 6.71642 12.721C7.16418 13.093 7.83582 13.093 8.28358 12.721C9.92537 11.3076 13.4328 8.18312 13.5821 8.10873C13.5821 8.10873 13.5821 8.10873 13.5821 8.03433C14.4776 7.21602 15 6.02575 15 4.6867V4.53791Z" fill="white"/>
</svg>
