<svg width="16" height="16" viewBox="0 0 16 16" fill="none" xmlns="http://www.w3.org/2000/svg">
<path d="M5.31339 14.6667C6.78615 14.6667 7.98006 13.4728 7.98006 12C7.98006 10.5272 6.78615 9.33333 5.31339 9.33333C3.84064 9.33333 2.64673 10.5272 2.64673 12C2.64673 13.4728 3.84064 14.6667 5.31339 14.6667Z" stroke="white" stroke-opacity="0.8" stroke-width="1.25" stroke-linecap="round" stroke-linejoin="round"/>
<path d="M7.97998 12V2.66666" stroke="white" stroke-opacity="0.8" stroke-width="1.25" stroke-linecap="round" stroke-linejoin="round"/>
<path d="M9.73995 1.40667L12.6866 2.38667C13.3999 2.62667 13.9866 3.43333 13.9866 4.18667V4.96667C13.9866 5.98667 13.1999 6.55333 12.2333 6.23333L9.28661 5.25333C8.57328 5.01333 7.98661 4.20667 7.98661 3.45333V2.66667C7.97995 1.65333 8.77328 1.08 9.73995 1.40667Z" stroke="white" stroke-opacity="0.8" stroke-width="1.25" stroke-linecap="round" stroke-linejoin="round"/>
</svg>
