<svg class="back__card__svg svg__down" xmlns="http://www.w3.org/2000/svg" xmlns:xlink="http://www.w3.org/1999/xlink" x="0px" y="0pviewBox="0 0 16 16" style="enable-background:new 0 0 16 16;" xml:space="preserve">
	<path class="st0" d="M5.3,15.3C3.5,15.3,2,13.8,2,12s1.5-3.3,3.3-3.3s3.3,1.5,3.3,3.3S7.1,15.3,5.3,15.3z M5.3,10c-1.1,0-2,0.9-2,2s0.9,2,2,2s2-0.9,2-2S6.4,10,5.3,10z"/>
	<path class="st0" d="M8,12.6c-0.3,0-0.6-0.3-0.6-0.6V2.7C7.4,2.3,7.6,2,8,2s0.6,0.3,0.6,0.6V12C8.6,12.3,8.3,12.6,8,12.6z"/>
	<path class="st0" d="M12.8,6.9c-0.2,0-0.5,0-0.7-0.1l-2.9-1c-1-0.3-1.7-1.4-1.7-2.4V2.7C7.4,2,7.6,1.4,8.1,1c0.5-0.4,1.2-0.4,1.8-0.2l2.9,1c1,0.3,1.7,1.4,1.7,2.4V5c0,0.7-0.3,1.3-0.8,1.6C13.5,6.8,13.2,6.9,12.8,6.9z M9.2,1.9C9.1,1.9,9,2,8.9,2C8.7,2.2,8.6,2.4,8.6,2.7v0.8c0,0.5,0.4,1.1,0.9,1.2l2.9,1c0.3,0.1,0.5,0.1,0.7,0c0.2-0.1,0.3-0.3,0.3-0.6V4.2c0-0.5-0.4-1.1-0.9-1.2L9.5,2c0,0,0,0,0,0C9.4,2,9.3,1.9,9.2,1.9z"/>
</svg>
