<svg class="back__card__up__svg" xmlns="http://www.w3.org/2000/svg" xmlns:xlink="http://www.w3.org/1999/xlink" x="0px" y="0px"viewBox="0 0 18 18" style="enable-background:new 0 0 18 18;" xml:space="preserve">
	<path class="st0" d="M10.6,9.3H6.9c-0.3,0-0.5-0.2-0.5-0.5s0.2-0.5,0.5-0.5h3.7c0.3,0,0.5,0.2,0.5,0.5S10.9,9.3,10.6,9.3z"/>
	<path class="st0" d="M8.8,11.2c-0.3,0-0.5-0.2-0.5-0.5V6.9c0-0.3,0.2-0.5,0.5-0.5s0.5,0.2,0.5,0.5v3.8C9.3,10.9,9.1,11.2,8.8,11.2z"/>
	<path class="st0" d="M8.6,16.2C4.4,16.2,1,12.8,1,8.6C1,4.4,4.4,1,8.6,1c4.2,0,7.6,3.4,7.6,7.6C16.2,12.8,12.8,16.2,8.6,16.2zM8.6,2C5,2,2,5,2,8.6c0,3.7,3,6.6,6.6,6.6c3.7,0,6.6-3,6.6-6.6C15.2,5,12.3,2,8.6,2z"/>
	<path class="st0" d="M16.5,17c-0.1,0-0.3,0-0.4-0.1l-1.5-1.5c-0.2-0.2-0.2-0.5,0-0.7s0.5-0.2,0.7,0l1.5,1.5c0.2,0.2,0.2,0.5,0,0.7C16.8,17,16.6,17,16.5,17z"/>
</svg>
