<svg width="18" height="18" viewBox="0 0 18 18" fill="none" xmlns="http://www.w3.org/2000/svg">
<path d="M7.9875 14.3325V3.6675C7.9875 2.655 7.56 2.25 6.48 2.25H3.7575C2.6775 2.25 2.25 2.655 2.25 3.6675V14.3325C2.25 15.345 2.6775 15.75 3.7575 15.75H6.48C7.56 15.75 7.9875 15.345 7.9875 14.3325Z" stroke="white" stroke-width="1.25" stroke-linecap="round" stroke-linejoin="round"/>
<path d="M15.7531 14.3325V3.6675C15.7531 2.655 15.3256 2.25 14.2456 2.25H11.5231C10.4506 2.25 10.0156 2.655 10.0156 3.6675V14.3325C10.0156 15.345 10.4431 15.75 11.5231 15.75H14.2456C15.3256 15.75 15.7531 15.345 15.7531 14.3325Z" stroke="white" stroke-width="1.25" stroke-linecap="round" stroke-linejoin="round"/>
</svg>
