<svg class="camera__svg"  xmlns="http://www.w3.org/2000/svg" xmlns:xlink="http://www.w3.org/1999/xlink" x="0px" y="0px"
	 viewBox="0 0 16 15" style="enable-background:new 0 0 16 15;" xml:space="preserve">
		<path class="st0" d="M11.5,14.2h-7c-1.9,0-3-1.1-3.2-2.8L1,6.3C0.9,5.5,1.2,4.8,1.7,4.2c0.6-0.6,1.4-1,2.3-1
			c0.2,0,0.4-0.1,0.5-0.3L5,2.1c0.4-0.7,1.4-1.3,2.2-1.3h1.5c0.9,0,1.8,0.6,2.2,1.3L11.5,3c0.1,0.2,0.3,0.3,0.5,0.3
			c0.9,0,1.7,0.4,2.3,1c0.5,0.6,0.8,1.3,0.7,2.1l-0.3,5.2C14.5,13.2,13.4,14.2,11.5,14.2z M7.2,1.8c-0.5,0-1.1,0.4-1.4,0.8L5.4,3.4
			C5.1,3.9,4.6,4.2,4,4.2c-0.6,0-1.1,0.2-1.5,0.6C2.1,5.3,2,5.7,2,6.2l0.3,5.2c0.1,1.2,0.8,1.9,2.2,1.9h7c1.3,0,2.1-0.6,2.2-1.9
			L14,6.2c0-0.5-0.1-0.9-0.5-1.3c-0.4-0.4-0.9-0.6-1.5-0.6c-0.6,0-1.1-0.3-1.4-0.8l-0.5-0.9C9.9,2.1,9.3,1.8,8.8,1.8H7.2z"/>
		<path class="st0" d="M9,5.5H7C6.7,5.5,6.5,5.3,6.5,5S6.7,4.5,7,4.5h2c0.3,0,0.5,0.2,0.5,0.5S9.3,5.5,9,5.5z"/>
		<path class="st0" d="M8,11.8c-1.5,0-2.7-1.1-2.7-2.5S6.5,6.7,8,6.7c1.5,0,2.7,1.1,2.7,2.5S9.5,11.8,8,11.8z M8,7.7
			c-0.9,0-1.7,0.7-1.7,1.5s0.7,1.5,1.7,1.5s1.7-0.7,1.7-1.5S8.9,7.7,8,7.7z"/>
</svg>
