<svg class="form__svg" height="14px" fill="#7B7B7B" xmlns="http://www.w3.org/2000/svg" xmlns:xlink="http://www.w3.org/1999/xlink" x="0px" y="0px"
	 viewBox="0 0 16 22" style="enable-background:new 0 0 16 22;" xml:space="preserve">
<path class="st0" d="M0,21.1h15.1v-3.8c0-1.4-0.6-2.7-1.6-3.7c-1-1-2.3-1.5-3.7-1.5H5.3c-1.4,0-2.7,0.6-3.7,1.5
	c-1,1-1.5,2.3-1.6,3.7V21.1z"/>
<path class="st0" d="M2.3,5.3c0,1,0.3,2.1,0.9,2.9c0.6,0.9,1.4,1.5,2.4,1.9c1,0.4,2,0.5,3.1,0.3c1-0.2,2-0.7,2.7-1.4
	c0.7-0.7,1.2-1.7,1.4-2.7c0.2-1,0.1-2.1-0.3-3s-1.1-1.8-1.9-2.4C9.6,0.3,8.6,0,7.6,0C6.2,0,4.8,0.6,3.8,1.5C2.8,2.5,2.3,3.9,2.3,5.3
	z"/>
</svg>
