<svg xmlns="http://www.w3.org/2000/svg" fill="green" xmlns:xlink="http://www.w3.org/1999/xlink" x="0px" y="0px"
	 viewBox="0 0 19 14" style="enable-background:new 0 0 19 14;" xml:space="preserve">
<path class="st0" d="M18.8,7.1c0,0.1-0.7,1.7-2.2,3.3c-2,2.1-4.5,3.3-7.2,3.3c-2.7,0-5.2-1.1-7.2-3.3C0.7,8.7,0.1,7.1,0.1,7.1
	C0,7,0,6.9,0,6.8c0-0.1,0-0.2,0.1-0.3c0-0.1,0.7-1.7,2.2-3.3C4.2,1.1,6.7,0,9.4,0c2.7,0,5.2,1.1,7.2,3.3c1.5,1.6,2.1,3.2,2.2,3.3
	c0,0.1,0.1,0.2,0.1,0.3C18.9,6.9,18.9,7,18.8,7.1z M9.4,9.8c0.6,0,1.1-0.2,1.6-0.5c0.5-0.3,0.8-0.8,1-1.4c0.2-0.6,0.3-1.2,0.2-1.8
	c-0.1-0.6-0.4-1.1-0.8-1.6c-0.4-0.4-0.9-0.7-1.5-0.8C9.4,3.7,8.9,3.7,8.4,4c-0.5,0.2-1,0.6-1.3,1.1C6.8,5.6,6.6,6.2,6.6,6.8
	c0,0.8,0.3,1.6,0.8,2.2C8,9.5,8.7,9.8,9.4,9.8z"/>
</svg>
