<svg class="arrow__svg" xmlns="http://www.w3.org/2000/svg" xmlns:xlink="http://www.w3.org/1999/xlink" x="0px" y="0px"
	 viewBox="0 0 50 50" style="enable-background:new 0 0 50 50;" xml:space="preserve">
<path class="st0" d="M25,47.4c-12.4,0-22.4-10-22.4-22.4S12.6,2.6,25,2.6c12.4,0,22.4,10,22.4,22.4S37.4,47.4,25,47.4z M25,5.7
	C14.4,5.7,5.7,14.4,5.7,25S14.4,44.3,25,44.3S44.3,35.6,44.3,25S35.6,5.7,25,5.7z"/>
<path class="st0" d="M22.4,33.9c-0.4,0-0.8-0.1-1.1-0.5c-0.6-0.6-0.6-1.6,0-2.2l6.2-6.2l-6.2-6.2c-0.6-0.6-0.6-1.6,0-2.2
	c0.6-0.6,1.6-0.6,2.2,0l7.4,7.4c0.6,0.6,0.6,1.6,0,2.2l-7.4,7.4C23.2,33.8,22.8,33.9,22.4,33.9z"/>
</svg>
