<svg id='bragos' viewBox="0 0 26 26" xmlns="http://www.w3.org/2000/svg">
    <g name='right_man'>
        <path d="M19.4999 7.757C19.4349 7.74616 19.3591 7.74616 19.2941 7.757C17.7991 7.70283 16.6074 6.47866 16.6074 4.96199C16.6074 3.41283 17.8533 2.16699 19.4024 2.16699C20.9516 2.16699 22.1974 3.42366 22.1974 4.96199C22.1866 6.47866 20.9949 7.70283 19.4999 7.757Z" stroke-width="1.5" stroke-linecap="round" stroke-linejoin="round"/>
        <path d="M18.3841 15.6438C19.8682 15.893 21.5041 15.633 22.6524 14.8638C24.1799 13.8455 24.1799 12.1772 22.6524 11.1588C21.4932 10.3897 19.8357 10.1297 18.3516 10.3897" stroke-width="1.5" stroke-linecap="round" stroke-linejoin="round"/>
    </g>
    <g name="center_man">
        <path d="M6.46899 7.757C6.53399 7.74616 6.60982 7.74616 6.67482 7.757C8.16982 7.70283 9.36148 6.47866 9.36148 4.96199C9.36148 3.41283 8.11565 2.16699 6.56649 2.16699C5.01732 2.16699 3.77148 3.42366 3.77148 4.96199C3.78232 6.47866 4.97399 7.70283 6.46899 7.757Z" stroke-width="1.5" stroke-linecap="round" stroke-linejoin="round"/>
        <path d="M7.58388 15.6438C6.09971 15.893 4.46388 15.633 3.31555 14.8638C1.78805 13.8455 1.78805 12.1772 3.31555 11.1588C4.47471 10.3897 6.13221 10.1297 7.61638 10.3897" stroke-width="1.5" stroke-linecap="round" stroke-linejoin="round"/>
    </g>
    <g name="left_man">
        <path d="M12.9999 15.8488C12.9349 15.838 12.8591 15.838 12.7941 15.8488C11.2991 15.7946 10.1074 14.5705 10.1074 13.0538C10.1074 11.5046 11.3533 10.2588 12.9024 10.2588C14.4516 10.2588 15.6974 11.5155 15.6974 13.0538C15.6866 14.5705 14.4949 15.8055 12.9999 15.8488Z" stroke-width="1.5" stroke-linecap="round" stroke-linejoin="round"/>
        <path d="M9.8468 19.2616C8.3193 20.28 8.3193 21.9483 9.8468 22.9666C11.5801 24.1258 14.4185 24.1258 16.1518 22.9666C17.6793 21.9483 17.6793 20.28 16.1518 19.2616C14.4293 18.1133 11.5801 18.1133 9.8468 19.2616Z" stroke-width="1.5" stroke-linecap="round" stroke-linejoin="round"/>
    </g>
</svg>
