<svg id="chats" viewBox="0 0 26 26" xmlns="http://www.w3.org/2000/svg">
    <g>
        <path d="M19.4777 11.6892V16.0225C19.4777 16.3042 19.4669 16.575 19.4344 16.835C19.1852 19.76 17.4627 21.2117 14.2885 21.2117H13.8552C13.5844 21.2117 13.3243 21.3417 13.1618 21.5583L11.8619 23.2917C11.2877 24.0608 10.356 24.0608 9.78185 23.2917L8.48183 21.5583C8.341 21.3742 8.02685 21.2117 7.78852 21.2117H7.35519C3.89936 21.2117 2.16602 20.3558 2.16602 16.0225V11.6892C2.16602 8.51501 3.62852 6.79251 6.54269 6.54334C6.80269 6.51084 7.07353 6.5 7.35519 6.5H14.2885C17.7444 6.5 19.4777 8.23334 19.4777 11.6892Z" stroke-width="1.5" stroke-miterlimit="10" stroke-linecap="round" stroke-linejoin="round"/>
    </g>
    <path d="M23.8113 7.35617V11.6895C23.8113 14.8745 22.3488 16.5862 19.4346 16.8353C19.4671 16.5753 19.478 16.3045 19.478 16.0228V11.6895C19.478 8.23367 17.7446 6.50033 14.2888 6.50033H7.35547C7.0738 6.50033 6.80297 6.51117 6.54297 6.54367C6.79214 3.6295 8.51464 2.16699 11.6888 2.16699H18.6221C22.078 2.16699 23.8113 3.90033 23.8113 7.35617Z" stroke-width="1.5" stroke-miterlimit="10" stroke-linecap="round" stroke-linejoin="round"/>
    <path d="M14.6208 14.3542H14.6305" stroke-width="2" stroke-linecap="round" stroke-linejoin="round"/>
    <path d="M10.8278 14.3542H10.8376" stroke-width="2" stroke-linecap="round" stroke-linejoin="round"/>
    <path d="M7.03679 14.3542H7.04654" stroke-width="2" stroke-linecap="round" stroke-linejoin="round"/>
</svg>
