<svg width="36" height="35" class="close__svg" viewBox="0 0 36 35" fill="none" xmlns="http://www.w3.org/2000/svg">
<path fill-rule="evenodd" clip-rule="evenodd" d="M17.999 31.1145C25.755 31.1145 32.0544 24.827 32.0691 17.071C32.0837 9.31503 25.8081 3.02756 18.0521 3.02756C10.2961 3.02756 3.99674 9.31503 3.98209 17.071C3.96745 24.827 10.2431 31.1145 17.999 31.1145ZM17.9935 34.071C27.3823 34.071 35.0078 26.4598 35.0256 17.071C35.0433 7.68219 27.4465 0.0710449 18.0577 0.0710449C8.66884 0.0710449 1.0433 7.68219 1.02557 17.071C1.00784 26.4598 8.60462 34.071 17.9935 34.071Z" fill="white"/>
<path d="M9.73896 18.2417C9.00758 18.2417 8.41579 17.6488 8.41717 16.9174C8.41856 16.186 9.01258 15.5931 9.74396 15.5931L26.2352 15.5931C26.9666 15.5931 27.5584 16.186 27.557 16.9174C27.5556 17.6488 26.9616 18.2417 26.2302 18.2417L9.73896 18.2417Z" fill="white"/>
<path d="M16.5615 9.59804C16.5629 8.82698 17.1892 8.2019 17.9602 8.2019C18.7313 8.2019 19.3552 8.82697 19.3537 9.59804L19.3247 24.9606C19.3233 25.7317 18.697 26.3567 17.9259 26.3567C17.1549 26.3567 16.531 25.7317 16.5324 24.9606L16.5615 9.59804Z" fill="white"/>
</svg>
