<svg class="form__svg" xmlns="http://www.w3.org/2000/svg" xmlns:xlink="http://www.w3.org/1999/xlink" x="0px" y="0px"
	 viewBox="0 0 22 23" style="enable-background:new 0 0 22 23;" xml:space="preserve">
<g>
	<path class="st0" d="M11,2.1c-5,0-9.2,4.1-9.2,9.2c0,5.1,4.1,9.2,9.2,9.2c5,0,9.2-4.1,9.2-9.2C20.2,6.2,16,2.1,11,2.1z"/>
	<path d="M11,21.2c-5.5,0-9.9-4.5-9.9-9.9c0-5.5,4.4-9.9,9.9-9.9s9.9,4.5,9.9,9.9C20.9,16.7,16.5,21.2,11,21.2z M11,2.8
		c-4.6,0-8.4,3.8-8.4,8.4c0,4.7,3.8,8.4,8.4,8.4c4.6,0,8.4-3.8,8.4-8.4C19.4,6.6,15.6,2.8,11,2.8z"/>
</g>
<path d="M11,15.7c-0.4,0-0.8-0.3-0.8-0.8v-4.6c0-0.4,0.3-0.8,0.8-0.8s0.8,0.3,0.8,0.8v4.6C11.8,15.3,11.4,15.7,11,15.7z"/>
<path class="st1" d="M11,7.6L11,7.6L11,7.6z"/>
<path d="M11,8.6L11,8.6c-0.6,0-1-0.4-1-1s0.4-1,1-1s1,0.4,1,1S11.6,8.6,11,8.6z"/>
</svg>
