<svg version="1.1" id="Слой_1" xmlns="http://www.w3.org/2000/svg" xmlns:xlink="http://www.w3.org/1999/xlink" x="0px" y="0px"
	 viewBox="0 0 20 21" style="enable-background:new 0 0 20 21;" xml:space="preserve">
<path class="st0" fill="#CCCCCC" d="M6.6,19.5c-2.3,0-4.1-1.8-4.1-4.1s1.8-4.1,4.1-4.1s4.1,1.8,4.1,4.1S8.9,19.5,6.6,19.5z M6.6,12.8
	c-1.4,0-2.6,1.2-2.6,2.6S5.2,18,6.6,18s2.6-1.2,2.6-2.6S8.1,12.8,6.6,12.8z"/>
<path class="st0" d="M10,16.1c-0.4,0-0.8-0.3-0.8-0.8V3.7c0-0.4,0.3-0.8,0.8-0.8s0.8,0.3,0.8,0.8v11.7C10.7,15.8,10.4,16.1,10,16.1z
	"/>
<path class="st0" d="M15.9,9c-0.3,0-0.6,0-0.9-0.1l-3.7-1.2c-1.2-0.4-2.1-1.7-2.1-3v-1c0-0.8,0.3-1.6,0.9-2c0.6-0.4,1.4-0.5,2.2-0.3
	l3.7,1.2c1.2,0.4,2.1,1.7,2.1,3v1c0,0.9-0.3,1.6-1,2C16.9,8.9,16.4,9,15.9,9z M11.5,2.7c-0.2,0-0.3,0-0.5,0.1
	c-0.2,0.2-0.3,0.4-0.3,0.8v1c0,0.6,0.5,1.3,1.1,1.5l3.7,1.2c0.3,0.1,0.7,0.1,0.9-0.1c0.2-0.2,0.3-0.4,0.3-0.8v-1
	c0-0.6-0.5-1.3-1.1-1.5l-3.7-1.2c0,0,0,0,0,0C11.8,2.8,11.6,2.7,11.5,2.7z"/>
</svg>
