<?xml version="1.0" encoding="utf-8"?>
<!-- Generator: Adobe Illustrator 27.7.0, SVG Export Plug-In . SVG Version: 6.00 Build 0)  -->
<svg class="menu_list_el_svg" xmlns="http://www.w3.org/2000/svg" xmlns:xlink="http://www.w3.org/1999/xlink" x="0px" y="0px"
	 viewBox="0 0 26 26" xml:space="preserve">
<path class="st0" d="M10.8,24.6c-0.6,0-1.2-0.3-1.6-0.9L7.9,22c0,0-0.1,0-0.1,0l-0.4,0c-3.7,0-5.9-1-5.9-5.9v-4.3
	c0-3.6,1.8-5.6,5.1-5.9c0.3,0,0.6,0,0.9,0h6.9c3.9,0,5.9,2.1,5.9,5.9V16c0,0.3,0,0.6,0,0.9c-0.3,3.3-2.3,5-5.9,5h-0.4
	c0,0-0.1,0-0.1,0l-1.3,1.7C12,24.3,11.4,24.6,10.8,24.6z M7.4,7.2c-0.2,0-0.5,0-0.7,0c-2.5,0.2-3.7,1.6-3.7,4.4V16
	c0,3.8,1.3,4.4,4.4,4.4h0.4c0.5,0,1,0.3,1.3,0.6l1.3,1.7c0.3,0.4,0.6,0.4,0.9,0l1.3-1.7c0.3-0.4,0.8-0.6,1.3-0.6h0.4
	c2.8,0,4.2-1.2,4.4-3.7c0-0.3,0-0.5,0-0.7v-4.3c0-3-1.4-4.4-4.4-4.4H7.4z"/>
<path class="st0" d="M19.4,17.6c-0.2,0-0.4-0.1-0.5-0.2c-0.2-0.2-0.2-0.4-0.2-0.6c0-0.2,0-0.5,0-0.7v-4.3c0-3-1.4-4.4-4.4-4.4H7.4
	c-0.2,0-0.5,0-0.7,0c-0.2,0-0.4,0-0.6-0.2S5.8,6.7,5.8,6.5c0.3-3.3,2.3-5.1,5.9-5.1h6.9c3.9,0,5.9,2.1,5.9,5.9v4.3
	C24.6,15.3,22.8,17.3,19.4,17.6C19.5,17.6,19.5,17.6,19.4,17.6z M7.4,5.8h6.9c3.9,0,5.9,2.1,5.9,5.9V16c1.9-0.4,2.8-1.8,2.8-4.3V7.4
	c0-3-1.4-4.4-4.4-4.4h-6.9C9.2,2.9,7.9,3.8,7.4,5.8z"/>
<path class="st0" d="M14.6,15.4c-0.6,0-1-0.4-1-1c0-0.6,0.4-1,1-1h0c0.6,0,1,0.4,1,1C15.6,14.9,15.2,15.4,14.6,15.4z"/>
<path class="st0" d="M10.8,15.4c-0.6,0-1-0.4-1-1c0-0.6,0.4-1,1-1h0c0.6,0,1,0.4,1,1C11.8,14.9,11.4,15.4,10.8,15.4z"/>
<path class="st0" d="M7,15.4c-0.6,0-1-0.4-1-1c0-0.6,0.4-1,1-1h0c0.6,0,1,0.4,1,1C8,14.9,7.6,15.4,7,15.4z"/>
</svg>
