<?xml version="1.0" encoding="utf-8"?>
<!-- Generator: Adobe Illustrator 27.7.0, SVG Export Plug-In . SVG Version: 6.00 Build 0)  -->
<svg class="menu_list_el_svg" xmlns="http://www.w3.org/2000/svg" xmlns:xlink="http://www.w3.org/1999/xlink" x="0px" y="0px"
	 viewBox="0 0 26 26" xml:space="preserve">
<path d="M19.5,8.5c0,0-0.1,0-0.1,0c0,0-0.1,0-0.1,0c-1.9-0.1-3.4-1.6-3.4-3.5c0-2,1.6-3.5,3.5-3.5S22.9,3,22.9,5
	C22.9,6.9,21.4,8.4,19.5,8.5C19.5,8.5,19.5,8.5,19.5,8.5z M19.4,8.5L19.4,8.5L19.4,8.5z M19.4,8.5L19.4,8.5L19.4,8.5z M19.4,2.9
	c-1.1,0-2,0.9-2,2c0,1.1,0.8,2,1.9,2c0.1,0,0.2,0,0.3,0c1.1-0.1,1.9-1,1.9-2C21.4,3.8,20.5,2.9,19.4,2.9z"/>
<path d="M19.5,16.5c-0.4,0-0.8,0-1.2-0.1c-0.4-0.1-0.7-0.5-0.6-0.9c0.1-0.4,0.5-0.7,0.9-0.6c1.3,0.2,2.8,0,3.7-0.7
	c0.5-0.3,0.8-0.8,0.8-1.2c0-0.4-0.3-0.9-0.8-1.2c-1-0.6-2.4-0.9-3.8-0.7c-0.4,0.1-0.8-0.2-0.9-0.6c-0.1-0.4,0.2-0.8,0.6-0.9
	c1.7-0.3,3.6,0,4.8,0.9c0.9,0.6,1.5,1.5,1.5,2.5c0,0.9-0.5,1.8-1.5,2.5C22.1,16.1,20.8,16.5,19.5,16.5z"/>
<path d="M6.7,8.5c0,0-0.1,0-0.1,0c0,0-0.1,0-0.1,0C4.5,8.4,3,6.9,3,5c0-2,1.6-3.6,3.5-3.6S10.1,3,10.1,5C10.1,6.9,8.6,8.4,6.7,8.5
	C6.7,8.5,6.7,8.5,6.7,8.5z M6.6,2.9c-1.1,0-2,0.9-2,2c0,1.1,0.8,2,1.9,2c0.1,0,0.2,0,0.3,0c1.1-0.1,1.9-1,1.9-2
	C8.6,3.8,7.7,2.9,6.6,2.9z"/>
<path d="M6.5,16.5c-1.3,0-2.6-0.3-3.6-1C2,14.9,1.4,14,1.4,13c0-0.9,0.5-1.9,1.5-2.5C4.2,9.7,6,9.4,7.7,9.7c0.4,0.1,0.7,0.5,0.6,0.9
	c-0.1,0.4-0.5,0.7-0.9,0.6c-1.4-0.2-2.8,0-3.8,0.7c-0.5,0.3-0.8,0.8-0.8,1.2c0,0.4,0.3,0.9,0.8,1.2c1,0.6,2.4,0.9,3.7,0.7
	c0.4-0.1,0.8,0.2,0.9,0.6c0.1,0.4-0.2,0.8-0.6,0.9C7.3,16.5,6.9,16.5,6.5,16.5z"/>
<path d="M13,16.6c0,0-0.1,0-0.1,0c0,0-0.1,0-0.1,0c-1.9-0.1-3.4-1.6-3.4-3.5c0-2,1.6-3.5,3.5-3.5c2,0,3.5,1.6,3.5,3.5
	C16.4,15,14.9,16.5,13,16.6C13,16.6,13,16.6,13,16.6z M12.9,16.6C12.9,16.6,12.9,16.6,12.9,16.6C12.9,16.6,12.9,16.6,12.9,16.6z
	 M12.9,16.6C12.9,16.6,12.9,16.6,12.9,16.6C12.9,16.6,12.9,16.6,12.9,16.6z M12.9,15.1c0,0,0.1,0,0.1,0c1.1-0.1,1.9-0.9,1.9-2
	c0-1.1-0.9-2-2-2c-1.1,0-2,0.9-2,2c0,1.1,0.8,2,1.9,2C12.8,15.1,12.9,15.1,12.9,15.1z"/>
<path d="M13,24.6c-1.3,0-2.6-0.3-3.6-1C8.5,23,8,22.1,8,21.1s0.5-1.8,1.5-2.5c0,0,0,0,0,0c2-1.3,5.2-1.3,7.1,0
	c0.9,0.6,1.5,1.5,1.5,2.5s-0.5,1.8-1.5,2.5C15.6,24.3,14.3,24.6,13,24.6z M10.3,19.9L10.3,19.9c-0.5,0.3-0.8,0.8-0.8,1.2
	s0.3,0.9,0.8,1.2c1.5,1,4,1,5.5,0c0.5-0.3,0.8-0.8,0.8-1.2s-0.3-0.9-0.8-1.2C14.3,18.9,11.8,18.9,10.3,19.9z"/>
</svg>
