<?xml version="1.0" encoding="utf-8"?>
<!-- Generator: Adobe Illustrator 27.7.0, SVG Export Plug-In . SVG Version: 6.00 Build 0)  -->
<svg class="menu_list_el_svg" xmlns="http://www.w3.org/2000/svg" xmlns:xlink="http://www.w3.org/1999/xlink"
	 viewBox="0 0 26 26" xml:space="preserve">
<path d="M8.7,6.2c-0.4,0-0.8-0.3-0.8-0.8V2.2c0-0.4,0.3-0.8,0.8-0.8s0.8,0.3,0.8,0.8v3.2C9.4,5.8,9.1,6.2,8.7,6.2z"/>
<path d="M17.3,6.2c-0.4,0-0.8-0.3-0.8-0.8V2.2c0-0.4,0.3-0.8,0.8-0.8s0.8,0.3,0.8,0.8v3.2C18.1,5.8,17.7,6.2,17.3,6.2z"/>
<path d="M16.2,12.7H7.6c-0.4,0-0.8-0.3-0.8-0.8s0.3-0.8,0.8-0.8h8.7c0.4,0,0.8,0.3,0.8,0.8S16.7,12.7,16.2,12.7z"/>
<path d="M13,17H7.6c-0.4,0-0.8-0.3-0.8-0.8s0.3-0.8,0.8-0.8H13c0.4,0,0.8,0.3,0.8,0.8S13.4,17,13,17z"/>
<path d="M16.2,24.6H9.8c-6,0-7.2-2.8-7.2-7.4v-6.7c0-5.1,1.7-7.2,6.1-7.4l8.7,0c4.4,0.2,6.2,2.3,6.2,7.4v6.9c0,0.4-0.3,0.8-0.8,0.8
	S22,17.7,22,17.3v-6.9c0-4.8-1.6-5.7-4.7-5.9l-8.6,0C5.6,4.7,4,5.7,4,10.5v6.7c0,4.1,0.8,5.9,5.8,5.9h6.5c0.4,0,0.8,0.3,0.8,0.8
	S16.7,24.6,16.2,24.6z"/>
<path d="M16.2,24.6c-0.1,0-0.2,0-0.3-0.1c-0.3-0.1-0.5-0.4-0.5-0.7v-3.2c0-2.6,1.4-4,4-4h3.2c0.3,0,0.6,0.2,0.7,0.5
	c0.1,0.3,0.1,0.6-0.2,0.8l-6.5,6.5C16.6,24.5,16.4,24.6,16.2,24.6z M19.5,18.1c-1.8,0-2.5,0.7-2.5,2.5V22l3.9-3.9H19.5z"/>
</svg>
